<?xml version="1.0" encoding="utf-8"?>
<!-- Generator: Adobe Illustrator 19.2.1, SVG Export Plug-In . SVG Version: 6.00 Build 0)  -->
<svg version="1.1" id="Layer_1" xmlns="http://www.w3.org/2000/svg" xmlns:xlink="http://www.w3.org/1999/xlink" x="0px" y="0px"
	 viewBox="0 0 391 144" style="enable-background:new 0 0 391 144;" xml:space="preserve">
<style type="text/css">
	.st0{fill:#009149;}
	.st1{fill:#161345;}
</style>
<g>
	<path class="st0" d="M0,21.7c2.9,0.1,5.7,0.3,8.5,0.7V8.5h56v13.7c2.8-0.8,5.6-1.5,8.5-2V0H0V21.7z"/>
	<path class="st0" d="M0.1,47.6v8.5c15,0.7,28.6,7,38.7,16.9h11.4C38.3,58.1,20.3,48.4,0.1,47.6z"/>
	<path class="st0" d="M0.1,31.1v8.4c25,0.9,47,13.9,60.2,33.4h12.7v-9c-2.3,0.8-4.5,1.7-6.7,2.8c-1.7-2.4-3.4-4.6-5.3-6.8
		c3.8-2,7.9-3.6,12-4.7v-8.7c-6.3,1.5-12.4,3.9-18.1,7.1c-2.1-2-4.3-3.8-6.6-5.5c7.6-4.8,15.9-8.1,24.6-9.9v-8.6
		C61.4,31.7,50.5,36.2,40.7,43C28.7,35.8,14.9,31.5,0.1,31.1z"/>
	<path class="st0" d="M0.1,73h26c-7.5-5.1-16.4-8.3-26-8.8V73z"/>
</g>
<g>
	<path class="st1" d="M136.4,50.6c3.7-1.7,5.3-5.6,5.3-9.2c0-3.7-1.8-7.3-5-9.4c-2.9-1.9-6.5-2.4-10-2.4h-17.3v43.5h17.3
		c4.2,0,8.2-0.4,11.6-2.9c3.1-2.4,4.4-5.9,4.4-9.7C142.6,56.3,140.5,52.5,136.4,50.6z M117.2,36.4h9.7c3.6,0,6.7,1.3,6.7,5.5
		c0,4.1-3,5.4-6.5,5.4h-9.9V36.4z M127,66h-9.7V53.9h10c4.2,0,7.4,1.7,7.4,6.3C134.6,64.6,130.6,66,127,66z"/>
	<path class="st1" d="M155.9,57c0-5.1,2.8-9,8.2-9c0.9,0,1.8,0.1,2.6,0.3v-7.3c-0.8-0.1-1.6-0.2-2.4-0.2c-3.7,0-7.5,1.5-9,5.2
		l-0.7-4.8h-6.5V73h7.7V57z"/>
	<rect x="170.5" y="28.9" class="st1" width="8.2" height="7.9"/>
	<rect x="170.8" y="41.2" class="st1" width="7.8" height="31.8"/>
	<path class="st1" d="M206.5,69.5L207,73h6.6V28.8H206v14.6c-1.3-1.7-4.3-3-8.3-3c-3.2,0-5.8,1-7.8,2.6c-3.8,3.1-5.7,8-5.7,14.2
		c0,6,1.8,10.8,5.6,13.9c2,1.6,4.6,2.7,7.8,2.7C201.1,73.7,204.6,72.4,206.5,69.5z M199.1,67.3c-2.4,0-4-1.1-5.1-2.5
		c-1.6-2.1-2-5-2-7.8c0-2.8,0.4-5.6,2-7.7c1.1-1.4,2.8-2.5,5.1-2.5c6,0,7.2,5.6,7.2,10.2S205.1,67.3,199.1,67.3z"/>
	<path class="st1" d="M219,78.3c0,3,1.4,5.3,3.9,7c3.3,2.3,7.4,2.6,11.3,2.6c7.1,0,15.4-2.3,15.4-10.6c0-3.1-1.1-5.8-3.9-7.7
		c-3-2.1-7.2-2.1-10.3-2.1H230c-1.6,0-3.5-0.4-3.5-2.3c0-1,0.9-1.8,1.6-2.3c1.6,0.6,3.4,0.9,5.1,0.9c6.9,0,13-4.3,13-11.6
		c0-2.1-0.6-4-1.7-5.8c0.5-1.5,2.1-2,3.9-2c0.2,0,0.4,0.1,0.6,0.1v-5.9c-0.5-0.1-1.6-0.1-2.1-0.1c-2.7,0-5.1,1.2-6.5,4
		c-2.1-1.2-4.6-2-7.2-2c-7.2,0-13,4.1-13,11.7c0,3.2,1.2,5.9,3.2,7.8c-2.6,1.6-3.8,3.7-3.8,6.4c0,2.1,1.2,4.3,3.2,5.4
		C220.3,73,219,75.5,219,78.3z M233.2,46.1c3.5,0,5.6,2.5,5.6,5.9s-2.1,5.9-5.6,5.9s-5.6-2.4-5.6-5.9S229.7,46.1,233.2,46.1z
		 M228.6,73.5h6c2.9,0,7.6,0,7.6,3.9c0,4.2-5.4,4.4-8.4,4.4c-3,0-8-0.4-8-4.4C225.8,75.4,227,74,228.6,73.5z"/>
	<path class="st1" d="M276.3,69.3c1.2-1.5,2.5-4,2.7-5.9h-7.3c-0.3,1.2-0.9,2-1.5,2.7c-1.1,1.1-2.4,1.5-4.7,1.5
		c-2.1,0-3.6-0.9-4.7-2c-1.5-1.5-2.4-3.8-2.3-6.2h21.3c0-0.7,0.1-2.1,0.1-2.1c0.1-4-0.4-7.6-2.8-11.1c-2.6-4-6.9-5.9-11.6-5.9
		c-4.3,0-7.8,1.6-10.2,4c-3.1,3.1-4.6,7.7-4.6,12.7c0,5.2,1.7,9.7,4.9,12.7c2.5,2.4,5.7,3.9,10,3.9
		C269.6,73.8,273.6,72.5,276.3,69.3z M260,48.9c1.1-1.5,3-2.4,5.3-2.4c2.2,0,3.8,0.7,4.8,1.8c1.2,1.3,1.9,3.2,2,5.6h-13.8
		C258.4,51.8,258.9,50.3,260,48.9z"/>
	<path class="st1" d="M310.2,63.1c0-5-3.7-8.2-8.7-9c-3.1-0.5-3.9-0.6-6.8-0.9c-1.7-0.2-3.7-0.9-3.7-3.2c0-1.7,1.1-2.8,2.4-3.4
		c1.2-0.5,2.2-0.5,3.3-0.5c1.6,0,3.2,0.6,4.2,1.5c0.7,0.8,1.3,1.8,1.3,3h7.3c0-2.3-1.1-4.7-2.8-6.5c-2.3-2.5-6.2-3.7-10-3.7
		c-4,0-7.3,1.2-9.7,3.2c-1.9,1.7-3.2,3.9-3.2,7.2c0,4,2.9,7.6,7.3,8.5c2.8,0.6,6,0.8,8.8,1.2c2,0.3,3.2,1.5,3.2,3.4
		c0,3.5-3.9,4-6.5,4c-2.2,0-3.6-0.4-4.8-1.4c-1-0.8-1.7-2.3-1.7-3.7h-7.2c0,3,1.5,5.6,3.4,7.4c2.6,2.5,6.2,3.7,10.3,3.7
		c4.3,0,8.3-1.1,10.9-3.7C309.1,68.5,310.2,66.2,310.2,63.1z"/>
	<path class="st1" d="M346.9,72.6v-6.4c-2.1,0.2-3.4,0.3-5,0.3c-2.4,0-3.6-1-3.6-3.5V47.5h8v-6.3h-8v-8.1h-7.7v8.1H325v6.3h5.8v16.2
		c0,6.1,3.2,9.8,9.6,9.8C342.7,73.4,344.8,73.1,346.9,72.6z"/>
	<path class="st1" d="M364.4,73.8c4.8,0,8.9-2.3,11.1-5c2.4-3,3.7-6.4,3.7-11.8s-1.3-8.8-3.7-11.8c-2.2-2.7-6.3-5-11.1-5
		c-4.8,0-8.9,2.3-11.1,5c-2.4,3-3.7,6.4-3.7,11.8s1.3,8.8,3.7,11.8C355.4,71.5,359.5,73.8,364.4,73.8z M359.5,49.1
		c1-1.1,2.8-2,4.8-2c2.1,0,3.8,0.9,4.8,2c1.8,2,2.3,5,2.3,8s-0.4,6-2.3,8c-1,1.1-2.8,2-4.8,2c-2.1,0-3.8-0.9-4.8-2
		c-1.8-2-2.3-5-2.3-8S357.7,51.1,359.5,49.1z"/>
	<path class="st1" d="M126.4,87.7h-17v43.4h7.8v-15.5h9.2c10,0,15.3-5.6,15.3-14C141.7,93.2,136.4,87.7,126.4,87.7z M126.1,108.6
		h-8.9v-14h8.9c5.3,0,7.7,2.9,7.7,7C133.8,105.8,131.4,108.6,126.1,108.6z"/>
	<path class="st1" d="M152.9,104l-0.7-4.8h-6.5v31.8h7.7v-16c0-5.1,2.8-9,8.2-9c0.9,0,1.8,0.1,2.6,0.3V99c-0.8-0.1-1.6-0.2-2.4-0.2
		C158.1,98.8,154.4,100.3,152.9,104z"/>
	<path class="st1" d="M181.4,98.4c-4.8,0-8.9,2.3-11.1,5c-2.4,3-3.7,6.4-3.7,11.8c0,5.4,1.3,8.8,3.7,11.8c2.2,2.7,6.3,5,11.1,5
		c4.8,0,8.9-2.3,11.1-5c2.4-3,3.7-6.4,3.7-11.8c0-5.4-1.3-8.8-3.7-11.8C190.3,100.7,186.2,98.4,181.4,98.4z M186.2,123.2
		c-1,1.1-2.8,2-4.8,2c-2.1,0-3.8-0.9-4.8-2c-1.8-2-2.3-5-2.3-8s0.4-6,2.3-8c1-1.1,2.8-2,4.8-2c2.1,0,3.8,0.9,4.8,2
		c1.8,2,2.3,5,2.3,8S188.1,121.2,186.2,123.2z"/>
	<path class="st1" d="M218.2,112.2c-3.1-0.5-3.9-0.6-6.8-0.9c-1.7-0.2-3.7-0.9-3.7-3.2c0-1.7,1.1-2.8,2.4-3.4
		c1.2-0.5,2.2-0.5,3.3-0.5c1.6,0,3.2,0.6,4.2,1.5c0.7,0.8,1.3,1.8,1.3,3h7.3c0-2.3-1.1-4.7-2.8-6.5c-2.3-2.5-6.2-3.7-10-3.7
		c-4,0-7.3,1.2-9.7,3.2c-1.9,1.7-3.2,3.9-3.2,7.2c0,4,2.9,7.6,7.3,8.5c2.8,0.6,6,0.8,8.8,1.2c2,0.3,3.2,1.5,3.2,3.4
		c0,3.5-3.9,4-6.5,4c-2.2,0-3.6-0.4-4.8-1.4c-1-0.8-1.7-2.3-1.7-3.7h-7.2c0,3,1.5,5.6,3.4,7.4c2.6,2.5,6.2,3.7,10.3,3.7
		c4.3,0,8.3-1.1,10.9-3.7c1.7-1.7,2.8-3.9,2.8-7C226.9,116.2,223.2,113,218.2,112.2z"/>
	<path class="st1" d="M256.2,101.2c-2-1.6-4.5-2.7-7.7-2.7c-3.5,0-7,1.3-8.9,4.2l-0.5-3.5h-6.6v44h7.7v-14.5
		c1.5,1.8,4.5,3.1,8.3,3.1c3.2,0,5.8-1,7.8-2.6c3.8-3.1,5.7-8,5.7-14.2C261.9,109.1,260,104.3,256.2,101.2z M252.1,122.9
		c-1.1,1.4-2.8,2.5-5.1,2.5c-6,0-7.2-5.6-7.2-10.2c0-4.6,1.2-10.3,7.2-10.3c2.4,0,4,1.1,5.1,2.5c1.6,2.1,2,5,2,7.8
		C254.2,118,253.7,120.9,252.1,122.9z"/>
	<path class="st1" d="M280.5,98.4c-4.3,0-7.8,1.6-10.2,4c-3.1,3.1-4.6,7.7-4.6,12.7c0,5.2,1.7,9.7,4.9,12.7c2.5,2.4,5.7,3.9,10,3.9
		c4,0,8-1.3,10.7-4.5c1.2-1.5,2.5-4,2.7-5.9h-7.3c-0.3,1.2-0.9,2-1.5,2.7c-1.1,1.1-2.4,1.5-4.7,1.5c-2.1,0-3.6-0.9-4.7-2
		c-1.5-1.5-2.4-3.8-2.3-6.2h21.3c0-0.7,0.1-2.1,0.1-2.1c0.1-4-0.4-7.6-2.8-11.1C289.5,100.3,285.2,98.4,280.5,98.4z M273.4,112
		c0.1-2.1,0.6-3.5,1.7-5c1.1-1.5,3-2.4,5.3-2.4c2.2,0,3.8,0.7,4.8,1.8c1.2,1.3,1.9,3.2,2,5.6H273.4z"/>
	<path class="st1" d="M307.6,104l-0.7-4.8h-6.5v31.8h7.7v-16c0-5.1,2.8-9,8.2-9c0.9,0,1.8,0.1,2.6,0.3V99c-0.8-0.1-1.6-0.2-2.4-0.2
		C312.8,98.8,309,100.3,307.6,104z"/>
	<rect x="323" y="99.2" class="st1" width="7.8" height="31.8"/>
	<rect x="322.8" y="86.9" class="st1" width="8.2" height="7.9"/>
	<path class="st1" d="M348.2,121v-15.5h8v-6.3h-8v-8.1h-7.7v8.1h-5.8v6.3h5.8v16.2c0,6.1,3.2,9.8,9.6,9.8c2.3,0,4.4-0.3,6.5-0.9
		v-6.4c-2.1,0.2-3.4,0.3-5,0.3C349.3,124.5,348.2,123.5,348.2,121z"/>
	<path class="st1" d="M383.3,99.2l-8,23l-8.3-23h-8.4l12.5,31.8l-1.8,4.5c-0.8,1.9-2.3,2.4-3.7,2.4c-1.7,0-2.3-0.2-4.3-0.6v6.4
		c1.7,0.4,3.4,0.8,5.9,0.8c5.6,0,8.2-3.8,9.8-8l14-37.3H383.3z"/>
</g>
</svg>
